<svg width="18" height="18" viewBox="0 0 18 18" fill="none" xmlns="http://www.w3.org/2000/svg">
<path d="M8.16675 14H9.83342V12.3333H8.16675V14ZM9.00008 0.666656C7.90573 0.666656 6.8221 0.882205 5.81105 1.30099C4.80001 1.71978 3.88135 2.33361 3.10752 3.10743C1.54472 4.67024 0.666748 6.78985 0.666748 8.99999C0.666748 11.2101 1.54472 13.3297 3.10752 14.8925C3.88135 15.6664 4.80001 16.2802 5.81105 16.699C6.8221 17.1178 7.90573 17.3333 9.00008 17.3333C11.2102 17.3333 13.3298 16.4553 14.8926 14.8925C16.4554 13.3297 17.3334 11.2101 17.3334 8.99999C17.3334 7.90564 17.1179 6.82201 16.6991 5.81096C16.2803 4.79991 15.6665 3.88125 14.8926 3.10743C14.1188 2.33361 13.2002 1.71978 12.1891 1.30099C11.1781 0.882205 10.0944 0.666656 9.00008 0.666656ZM9.00008 15.6667C5.32508 15.6667 2.33341 12.675 2.33341 8.99999C2.33341 5.32499 5.32508 2.33332 9.00008 2.33332C12.6751 2.33332 15.6667 5.32499 15.6667 8.99999C15.6667 12.675 12.6751 15.6667 9.00008 15.6667ZM9.00008 3.99999C8.11603 3.99999 7.26818 4.35118 6.64306 4.9763C6.01794 5.60142 5.66675 6.44927 5.66675 7.33332H7.33342C7.33342 6.8913 7.50901 6.46737 7.82157 6.15481C8.13413 5.84225 8.55805 5.66666 9.00008 5.66666C9.44211 5.66666 9.86603 5.84225 10.1786 6.15481C10.4912 6.46737 10.6667 6.8913 10.6667 7.33332C10.6667 8.99999 8.16675 8.79166 8.16675 11.5H9.83342C9.83342 9.62499 12.3334 9.41666 12.3334 7.33332C12.3334 6.44927 11.9822 5.60142 11.3571 4.9763C10.732 4.35118 9.88414 3.99999 9.00008 3.99999Z" fill="#2F3857"/>
</svg>
