<svg width="16" height="17" viewBox="0 0 16 17" fill="none" xmlns="http://www.w3.org/2000/svg">
<path d="M13.8333 11.6667V14.1667C13.8333 14.625 13.4583 15 13 15H12.1667V11.6667H13.8333ZM3.83333 11.6667V15H3C2.54167 15 2.16667 14.625 2.16667 14.1667V11.6667H3.83333ZM8 0.833344C3.85833 0.833344 0.5 4.19168 0.5 8.33334V14.1667C0.5 15.55 1.61667 16.6667 3 16.6667H5.5V10H2.16667V8.33334C2.16667 5.10834 4.775 2.50001 8 2.50001C11.225 2.50001 13.8333 5.10834 13.8333 8.33334V10H10.5V16.6667H13C14.3833 16.6667 15.5 15.55 15.5 14.1667V8.33334C15.5 4.19168 12.1417 0.833344 8 0.833344Z" fill="#2F3857"/>
</svg>
