<svg width="18" height="18" viewBox="0 0 18 18" fill="none" xmlns="http://www.w3.org/2000/svg">
<path d="M8.16663 4.83335H9.83329V6.50002H8.16663V4.83335ZM8.16663 8.16669H9.83329V13.1667H8.16663V8.16669ZM8.99996 0.666687C4.39996 0.666687 0.666626 4.40002 0.666626 9.00002C0.666626 13.6 4.39996 17.3334 8.99996 17.3334C13.6 17.3334 17.3333 13.6 17.3333 9.00002C17.3333 4.40002 13.6 0.666687 8.99996 0.666687ZM8.99996 15.6667C5.32496 15.6667 2.33329 12.675 2.33329 9.00002C2.33329 5.32502 5.32496 2.33335 8.99996 2.33335C12.675 2.33335 15.6666 5.32502 15.6666 9.00002C15.6666 12.675 12.675 15.6667 8.99996 15.6667Z" fill="#2F3857"/>
</svg>
