<svg width="16" height="16" viewBox="0 0 16 16" fill="none" xmlns="http://www.w3.org/2000/svg">
<path d="M13.8333 10.5V13.8333H2.16667V10.5H13.8333ZM14.6667 8.83333H1.33333C0.875 8.83333 0.5 9.20833 0.5 9.66667V14.6667C0.5 15.125 0.875 15.5 1.33333 15.5H14.6667C15.125 15.5 15.5 15.125 15.5 14.6667V9.66667C15.5 9.20833 15.125 8.83333 14.6667 8.83333ZM3.83333 13.4167C3.15 13.4167 2.58333 12.8583 2.58333 12.1667C2.58333 11.475 3.15 10.9167 3.83333 10.9167C4.51667 10.9167 5.08333 11.475 5.08333 12.1667C5.08333 12.8583 4.525 13.4167 3.83333 13.4167ZM13.8333 2.16667V5.5H2.16667V2.16667H13.8333ZM14.6667 0.5H1.33333C0.875 0.5 0.5 0.875 0.5 1.33333V6.33333C0.5 6.79167 0.875 7.16667 1.33333 7.16667H14.6667C15.125 7.16667 15.5 6.79167 15.5 6.33333V1.33333C15.5 0.875 15.125 0.5 14.6667 0.5ZM3.83333 5.08333C3.15 5.08333 2.58333 4.525 2.58333 3.83333C2.58333 3.14167 3.15 2.58333 3.83333 2.58333C4.51667 2.58333 5.08333 3.15 5.08333 3.83333C5.08333 4.51667 4.525 5.08333 3.83333 5.08333Z" fill="black" fill-opacity="0.26"/>
</svg>
