<svg width="20" height="18" viewBox="0 0 20 18" fill="none" xmlns="http://www.w3.org/2000/svg">
<path d="M2.47012 18.0001H17.5301C19.0701 18.0001 20.0301 16.3301 19.2601 15.0001L11.7301 1.99005C10.9601 0.660054 9.04012 0.660054 8.27012 1.99005L0.740121 15.0001C-0.0298788 16.3301 0.930121 18.0001 2.47012 18.0001ZM10.0001 11.0001C9.45012 11.0001 9.00012 10.5501 9.00012 10.0001V8.00005C9.00012 7.45005 9.45012 7.00005 10.0001 7.00005C10.5501 7.00005 11.0001 7.45005 11.0001 8.00005V10.0001C11.0001 10.5501 10.5501 11.0001 10.0001 11.0001ZM11.0001 15.0001H9.00012V13.0001H11.0001V15.0001Z" fill="#FAC802"/>
</svg>
