<svg width="18" height="11" viewBox="0 0 18 11" fill="none" xmlns="http://www.w3.org/2000/svg">
<path d="M16.5 10.667H12V7.66699H9.99C9.135 9.48199 7.29 10.667 5.25 10.667C2.355 10.667 0 8.31199 0 5.41699C0 2.52199 2.355 0.166992 5.25 0.166992C7.29 0.166992 9.1275 1.35199 9.99 3.16699H18V7.66699H16.5V10.667ZM13.5 9.16699H15V6.16699H16.5V4.66699H8.955L8.7825 4.16449C8.2575 2.67199 6.8325 1.66699 5.25 1.66699C3.18 1.66699 1.5 3.34699 1.5 5.41699C1.5 7.48699 3.18 9.16699 5.25 9.16699C6.8325 9.16699 8.2575 8.16199 8.7825 6.66949L8.955 6.16699H13.5V9.16699ZM5.25 7.66699C4.0125 7.66699 3 6.65449 3 5.41699C3 4.17949 4.0125 3.16699 5.25 3.16699C6.4875 3.16699 7.5 4.17949 7.5 5.41699C7.5 6.65449 6.4875 7.66699 5.25 7.66699ZM5.25 4.66699C4.8375 4.66699 4.5 5.00449 4.5 5.41699C4.5 5.82949 4.8375 6.16699 5.25 6.16699C5.6625 6.16699 6 5.82949 6 5.41699C6 5.00449 5.6625 4.66699 5.25 4.66699Z" fill="#2F3857"/>
</svg>
